<?xml version="1.0" encoding="utf-8"?>
<!-- Generator: Adobe Illustrator 19.1.0, SVG Export Plug-In . SVG Version: 6.00 Build 0)  -->
<svg version="1.1" id="Camada_1" xmlns="http://www.w3.org/2000/svg" xmlns:xlink="http://www.w3.org/1999/xlink" x="0px" y="0px"
	 viewBox="581.5 346.3 100 100" style="enable-background:new 581.5 346.3 100 100;" xml:space="preserve">
<path d="M581.5,427.5V365c0-5.2,1.8-9.6,5.5-13.3c3.7-3.7,8.1-5.5,13.3-5.5h62.5c5.2,0,9.6,1.8,13.3,5.5c3.7,3.7,5.5,8.1,5.5,13.3
	v62.5c0,5.2-1.8,9.6-5.5,13.3c-3.7,3.7-8.1,5.5-13.3,5.5h-62.5c-5.2,0-9.6-1.8-13.3-5.5C583.3,437.1,581.5,432.7,581.5,427.5z
	 M598.1,427.5c0,0.6,0.2,1,0.6,1.5c0.4,0.4,0.9,0.6,1.5,0.6h12.5c0.6,0,1-0.2,1.5-0.6c0.4-0.4,0.6-0.9,0.6-1.5v-41.7
	c0-0.6-0.2-1-0.6-1.5c-0.4-0.4-0.9-0.6-1.5-0.6h-12.5c-0.6,0-1,0.2-1.5,0.6c-0.4,0.4-0.6,0.9-0.6,1.5V427.5L598.1,427.5z M598.1,371
	c0,2.2,0.8,4.1,2.3,5.7s3.5,2.4,5.7,2.4c2.3,0,4.2-0.8,5.7-2.4c1.6-1.6,2.3-3.5,2.3-5.7s-0.8-4.1-2.4-5.7s-3.5-2.4-5.7-2.4
	s-4.1,0.8-5.7,2.4S598.1,368.8,598.1,371L598.1,371z M619,427.5c0,0.6,0.3,1,1,1.5c0.7,0.4,1.3,0.6,2,0.6h11.9
	c0.5,0,0.9-0.2,1.3-0.6c0.4-0.4,0.5-0.9,0.5-1.5v-22.7c0-6.1,2.5-9.1,7.4-9.1c2,0,3.4,0.5,4.1,1.4s1,2.5,1,4.9v25.6
	c0,0.6,0.3,1,0.8,1.5c0.5,0.4,1.1,0.6,1.7,0.6h12.1c0.6,0,1-0.2,1.5-0.6c0.4-0.4,0.6-0.9,0.6-1.5v-28.3c0-5.5-1.6-9.6-4.7-12.5
	c-3.1-2.9-7.6-4.3-13.3-4.3c-3.9,0-7.3,1-10.3,3c-0.6,0.3-0.9,0.6-0.9,0.8c0-1.6-0.7-2.3-2.2-2.3h-11.5c-0.7,0-1.4,0.2-2,0.5
	c-0.6,0.3-1,0.8-1,1.3V427.5L619,427.5z"/>
</svg>
